<svg xmlns="http://www.w3.org/2000/svg" viewBox="0 0 140 150" fill="none"><g fill="currentColor"><path d="M67 39h6l13 18-5 8H59l-5-8 13-18Z"/><circle cx="70" cy="45" r="7"/><path d="M63 36 27 3c-3-3-7-3-9 1l-5 8c-2 3-1 6 2 9l38 27 10-12ZM77 36l36-33c3-3 7-3 9 1l5 8c2 3 1 6-2 9L87 48 77 36ZM53 51 15 79c-4 3-5 7-2 10l6 6c3 3 7 2 10-1l34-33-10-10ZM87 51l38 28c4 3 5 7 2 10l-6 6c-3 3-7 2-10-1L77 61l10-10Z"/><path d="m70 56 40 71c-24 17-56 17-80 0l40-71Z"/><path d="M35 122c23 12 47 12 70 0l6 10c-26 17-56 17-82 0l6-10Z" opacity=".82"/></g><g fill="#fff"><circle cx="70" cy="83" r="10"/><circle cx="49" cy="106" r="6"/><circle cx="88" cy="106" r="8"/><circle cx="70" cy="60" r="3.5"/></g></svg>
